<svg preserveAspectRatio="none" width="100%" height="100%" overflow="visible" style="display: block;" viewBox="0 0 102 28" fill="none" xmlns="http://www.w3.org/2000/svg">
<g id="logo">
<g id="vector">
<path d="M74.6441 2.44524C74.862 2.41909 75.0829 2.44221 75.2907 2.51291C75.4986 2.58362 75.6881 2.70013 75.8456 2.85394C76.003 3.00776 76.1244 3.195 76.2008 3.40202C76.2772 3.60903 76.3067 3.8306 76.2872 4.05057V6.93457H78.2345C78.4483 6.90235 78.6666 6.91848 78.8735 6.98179C79.0804 7.04511 79.2707 7.15401 79.4305 7.30059C79.5903 7.44717 79.7157 7.62775 79.7976 7.8292C79.8794 8.03066 79.9156 8.24793 79.9036 8.46524C79.9159 8.6827 79.8799 8.90018 79.7982 9.10187C79.7165 9.30356 79.5911 9.48438 79.4313 9.63117C79.2714 9.77796 79.081 9.88704 78.874 9.95045C78.667 10.0139 78.4485 10.03 78.2345 9.99777H76.2872V16.5218C76.2872 17.5372 76.6581 17.5372 76.838 17.5372C77.1385 17.5335 77.4314 17.4417 77.6809 17.2731L77.7189 17.2516C77.9582 17.115 78.2266 17.0382 78.5016 17.0276C78.9635 17.0644 79.3931 17.2805 79.6997 17.6302C80.0063 17.9799 80.1659 18.4359 80.1447 18.9018C80.1502 19.1928 80.0688 19.4787 79.9111 19.7226C79.7534 19.9666 79.5266 20.1573 79.2601 20.27C78.4918 20.6161 77.6574 20.7882 76.8158 20.774C76.2906 20.8104 75.7635 20.7423 75.2645 20.5735C74.7656 20.4047 74.3046 20.1385 73.9078 19.7903C73.5554 19.4041 73.2848 18.9497 73.1123 18.4549C72.9398 17.9601 72.8691 17.4351 72.9045 16.9119V9.99964H72.2332C72.0182 10.0304 71.7991 10.0133 71.5914 9.94947C71.3837 9.88567 71.1924 9.77676 71.0311 9.63042C70.8698 9.48408 70.7424 9.30388 70.6579 9.10255C70.5733 8.90122 70.5337 8.68366 70.5418 8.46524C70.5343 8.24712 70.5743 8.02999 70.6591 7.82911C70.7439 7.62824 70.8714 7.44852 71.0326 7.3026C71.1939 7.15668 71.3849 7.0481 71.5923 6.98452C71.7998 6.92093 72.0185 6.90388 72.2332 6.93457H72.9045V4.05057C72.8913 3.82348 72.9284 3.59627 73.0133 3.38545C73.0982 3.17462 73.2286 2.98547 73.3952 2.83174C73.5618 2.67801 73.7603 2.56356 73.9764 2.49671C74.1924 2.42985 74.4205 2.41227 74.6441 2.44524Z" fill="var(--fill-0, white)"/>
<path d="M18.5311 18.5359C18.5571 17.9871 18.5051 17.4159 18.5051 16.9156C18.5051 14.5636 18.4792 11.9503 18.4792 9.5983C18.4792 7.66444 18.4273 5.73057 18.4273 3.79671C18.4218 3.57814 18.4045 3.36003 18.3753 3.14337C18.3444 2.9491 18.3011 2.75706 18.2455 2.56844C18.1723 2.40083 18.0663 2.24975 17.9339 2.12417C17.77 1.96739 17.561 1.86678 17.3368 1.83671C17.1132 1.80427 16.8876 1.78681 16.6617 1.78444C15.549 1.81057 14.4548 3.61377 13.9615 4.42391C12.8191 6.33164 12.2219 7.2463 11.495 8.37004C11.2741 8.76301 11.0223 9.13754 10.742 9.49004C10.1189 8.62764 9.44384 7.37324 8.53511 5.90977C8.02119 5.01268 7.44873 4.15088 6.82151 3.33004C6.38013 2.86337 5.91279 1.97111 5.21177 1.83671C4.98803 1.8053 4.76258 1.78784 4.53671 1.78444C4.2424 1.78462 3.95377 1.86597 3.70216 2.01964C3.46202 2.16891 3.27204 2.38745 3.15693 2.64684C3.01248 2.96755 2.93304 3.31405 2.92326 3.66604C2.8194 5.1295 2.76747 6.6191 2.76747 8.13484V11.6367L2.74151 15.6612L2.71925 17.7034C2.71925 18.17 2.74522 18.6442 2.77118 19.1146C2.7956 19.3749 2.87269 19.6274 2.99772 19.8567C3.12274 20.0859 3.29305 20.2869 3.49817 20.4474C3.75274 20.6164 4.04832 20.7122 4.35303 20.7245C4.65773 20.7368 4.95999 20.6651 5.22719 20.5172C5.49439 20.3693 5.7164 20.1507 5.86925 19.8851C6.0221 19.6195 6.09999 19.3169 6.09453 19.01C6.19838 18.9839 6.22434 8.0079 6.25031 7.87724C7.10849 9.48463 8.11698 11.006 9.26209 12.4207C9.57365 12.8127 10.1449 13.466 10.7161 13.4138C11.7027 13.3354 12.2998 12.6298 15.0001 8.1087C15.0328 8.55216 15.0415 8.99709 15.026 9.4415C15.052 10.6698 15.052 10.5615 15.052 11.689L15.0779 15.6874V17.7258C15.1039 18.6404 14.9741 19.8724 15.9347 20.4698C16.3459 20.6765 16.8208 20.714 17.2589 20.5743C17.5091 20.5554 17.7462 20.4544 17.9339 20.2868C18.0801 20.159 18.1955 19.9995 18.2715 19.8202C18.4228 19.408 18.5104 18.9748 18.5311 18.5359ZM33.1746 8.76204C33.0431 8.51625 32.8326 8.32273 32.5774 8.21324C32.3753 8.12053 32.1671 8.04194 31.9543 7.97804C31.7282 7.94421 31.4975 7.96208 31.2793 8.0303C31.1119 8.07684 30.9596 8.16698 30.8379 8.29164C30.6868 8.44603 30.5479 8.61204 30.4225 8.78817C30.3705 8.91884 30.2667 9.02337 30.2147 9.15404C29.8932 9.72688 29.6071 10.3191 29.3579 10.9274C29.1243 11.4239 28.8943 11.9466 28.631 12.4954L27.2809 15.37C26.6058 13.9066 25.8788 12.3124 25.2297 10.9274C24.9679 10.1205 24.5633 9.36797 24.0354 8.70604C23.8824 8.51096 23.6851 8.35562 23.4602 8.25302C23.2353 8.15043 22.9892 8.10357 22.7426 8.11636C22.496 8.12916 22.256 8.20124 22.0428 8.32657C21.8295 8.45189 21.6492 8.62682 21.5169 8.8367C21.3407 9.22741 21.2765 9.65993 21.3315 10.0854C21.3866 10.5109 21.5587 10.9125 21.8285 11.2447C22.9412 13.3092 24.0354 15.9748 24.9441 18.17C25.0739 18.4836 25.2557 18.9018 25.4374 19.29L23.5421 23.4191C23.4902 23.4191 23.4642 23.4975 23.4123 23.6282C23.3603 23.7327 23.3344 23.9156 23.2565 24.0948C23.2305 24.2815 23.2046 24.4607 23.1786 24.6698C23.1729 24.8751 23.2082 25.0795 23.2825 25.2708C23.3893 25.4922 23.5616 25.6748 23.7758 25.7935C23.9415 25.9411 24.1347 26.0541 24.3442 26.1259C24.5537 26.1977 24.7753 26.2268 24.9961 26.2116C25.2649 26.1617 25.519 26.051 25.7394 25.8881C25.9597 25.7252 26.1405 25.5141 26.2683 25.2708C26.3446 25.1001 26.4313 24.9343 26.5279 24.7743C26.9915 23.9119 27.3847 23.0495 27.8261 22.1348L29.0723 19.4431C29.2281 19.1818 29.332 18.8943 29.4618 18.633C29.9254 17.6138 30.4484 16.5684 30.9937 15.4447C31.5389 14.2948 31.9803 13.3279 32.4476 12.2564L32.4995 12.1258C32.6553 11.8122 33.0448 10.9236 33.1746 10.5839C33.3204 10.2554 33.3913 9.89824 33.3823 9.53857C33.4048 9.2633 33.3313 8.98875 33.1746 8.76204ZM54.4648 3.5615C54.2243 3.37247 53.9729 3.19795 53.7118 3.03884C53.4255 2.87231 53.1204 2.74071 52.8031 2.64684C52.5169 2.504 52.2103 2.40701 51.8944 2.35937C51.5828 2.3071 51.2972 2.25484 50.9597 2.20257C50.5443 2.15031 50.1251 2.09804 49.7134 2.07191C49.324 2.04577 48.9086 2.01964 48.4412 1.96737C47.2977 1.90765 46.1515 1.92511 45.0103 2.01964H44.9584C44.5231 1.96768 44.085 2.08967 43.7381 2.35937C43.6142 2.47654 43.5168 2.61914 43.4525 2.7775C43.4006 2.96417 43.3486 3.1695 43.2967 3.35244C43.2564 3.56824 43.2304 3.7865 43.2188 4.00577V18.4575C43.2197 18.9007 43.3185 19.3381 43.5081 19.738C43.5949 19.9389 43.7356 20.1114 43.9146 20.236C44.0935 20.3607 44.3034 20.4326 44.5207 20.4436C45.01 20.5389 45.5165 20.4842 45.9747 20.2868C46.6497 19.8948 46.6757 19.1108 46.7795 18.4575V13.0442C47.0126 13.0224 47.2466 13.0137 47.4806 13.018C48.1297 12.9919 48.5451 12.9658 49.2721 12.9135C50.7418 12.86 52.1913 12.5505 53.5561 11.9988C54.3227 11.712 54.9892 11.2057 55.4736 10.5424C55.958 9.87904 56.2391 9.0876 56.2822 8.2655C56.3416 7.39548 56.2099 6.52297 55.8964 5.70998C55.5829 4.89698 55.0954 4.16345 54.4685 3.5615H54.4648ZM52.907 7.87351C52.7215 9.8335 50.051 10.0948 48.3893 10.121L46.7795 10.1471C46.7795 9.54604 46.7795 8.91884 46.8055 8.29164C46.8055 7.14177 46.8055 6.20097 46.7795 5.1295C47.0222 5.12195 47.265 5.13068 47.5065 5.15564C47.896 5.18177 49.1422 5.20791 49.5317 5.23404C51.223 5.44311 53.0108 6.17484 52.907 7.87351ZM66.0742 16.8335C65.0024 17.2388 63.8661 17.4438 62.7212 17.4383C61.449 17.33 59.9171 16.785 60.1249 15.37C62.1241 15.4223 63.2924 15.5007 64.9541 15.4223C66.8494 15.3439 67.5764 15.3178 68.0141 14.0634C68.2341 13.1727 68.189 12.2366 67.8843 11.3716C67.3869 10.1653 66.4345 9.2067 65.236 8.70604C64.3853 8.31251 63.4567 8.11971 62.5207 8.14235C61.5848 8.165 60.6664 8.40249 59.8355 8.8367C59.1306 9.26496 58.5294 9.8461 58.0757 10.5378C57.6221 11.2295 57.3274 12.0143 57.2132 12.8351C56.823 14.6031 57.0619 16.453 57.8883 18.0618C58.8526 19.6074 60.722 20.2346 62.5914 20.3167C63.8701 20.3765 65.1463 20.1535 66.3302 19.6634C67.0052 19.3722 67.9399 18.7188 67.9399 17.8564C67.9399 16.6767 66.8754 16.602 66.0705 16.8372L66.0742 16.8335ZM64.9615 11.7636C65.1153 11.9132 65.2376 12.0925 65.3211 12.2907C65.4046 12.4889 65.4475 12.702 65.4474 12.9172H60.3585C60.0729 12.9172 60.7999 11.7972 60.9038 11.689C61.2272 11.2899 61.6758 11.0135 62.176 10.905C62.7424 10.7175 63.3549 10.7267 63.9155 10.9311C64.3173 11.1317 64.6715 11.4169 64.9541 11.7674L64.9615 11.7636Z" fill="var(--fill-0, white)"/>
<path d="M92.7868 5.78119C92.9872 5.76186 93.1894 5.78655 93.3794 5.85357C93.5694 5.92059 93.7427 6.02833 93.8873 6.16934C94.0319 6.31036 94.1443 6.48129 94.2169 6.67033C94.2894 6.85937 94.3204 7.06201 94.3075 7.26425V10.852H97.7783C97.9757 10.835 98.1745 10.861 98.3611 10.9282C98.5476 10.9954 98.7177 11.1022 98.8596 11.2414C99.0016 11.3806 99.1121 11.5488 99.1838 11.7348C99.2554 11.9208 99.2865 12.1201 99.2749 12.3192V12.3509C99.2933 12.5529 99.2683 12.7565 99.2015 12.9479C99.1348 13.1393 99.0279 13.314 98.8881 13.4601C98.7483 13.6062 98.5789 13.7203 98.3914 13.7946C98.2039 13.869 98.0027 13.9018 97.8014 13.8909H94.3075V17.4553C94.3212 17.6545 94.2922 17.8544 94.2224 18.0413C94.1525 18.2282 94.0435 18.3978 93.9028 18.5385C93.762 18.6792 93.5928 18.7878 93.4066 18.8568C93.2204 18.9258 93.0217 18.9536 92.8239 18.9384H92.8081C92.6056 18.9534 92.4023 18.9239 92.2123 18.852C92.0222 18.78 91.85 18.6673 91.7075 18.5217C91.5651 18.3761 91.4558 18.2011 91.3872 18.0087C91.3187 17.8163 91.2925 17.6113 91.3105 17.4077V13.8909H87.9112C87.7117 13.9033 87.512 13.8723 87.3256 13.8C87.1391 13.7277 86.9704 13.6159 86.8307 13.4721C86.6911 13.3282 86.5839 13.1558 86.5164 12.9665C86.4489 12.7773 86.4227 12.5756 86.4396 12.3752V12.3593C86.4247 12.1555 86.454 11.9509 86.5254 11.7596C86.5969 11.5683 86.7089 11.395 86.8535 11.2516C86.9982 11.1082 87.1721 10.9982 87.3632 10.9292C87.5543 10.8602 87.7581 10.8338 87.9603 10.852H91.3133V7.28852C91.2956 7.08818 91.3213 6.88636 91.3888 6.69703C91.4562 6.5077 91.5637 6.33539 91.7039 6.19202C91.844 6.04865 92.0134 5.93766 92.2004 5.86672C92.3874 5.79578 92.5875 5.7666 92.7868 5.78119Z" fill="var(--fill-0, white)"/>
</g>
</g>
</svg>
